<svg width="27" height="27" viewBox="0 0 27 27" fill="none" xmlns="http://www.w3.org/2000/svg">
<path fill-rule="evenodd" clip-rule="evenodd" d="M26.4795 11.9874C27.0514 12.8166 27.0514 13.9319 26.4795 14.7897L25.5072 16.3053C25.3929 16.4483 25.3643 16.6485 25.3643 16.82L25.4215 18.593C25.4786 19.5938 24.9353 20.5661 24.0203 21.0236L22.4189 21.8243C22.2473 21.9101 22.1329 22.0245 22.0472 22.196L21.2465 23.7974C20.7889 24.7125 19.8453 25.2558 18.8158 25.1986L17.0143 25.0842C16.8427 25.0842 16.6426 25.1414 16.4996 25.2272L15.0126 26.228C14.5837 26.514 14.0975 26.657 13.6114 26.657C13.1253 26.657 12.6392 26.514 12.2102 26.228L10.7232 25.2558C10.5803 25.1414 10.3801 25.1128 10.2085 25.1128L8.40699 25.2272C7.40614 25.2844 6.43388 24.7411 5.97635 23.826L5.17567 22.2246C5.08988 22.0816 4.9755 21.9387 4.80392 21.8529L3.20256 21.0522C2.2875 20.5947 1.74418 19.651 1.80137 18.6216L1.91575 16.82C1.91575 16.6199 1.88716 16.4483 1.80137 16.2481L0.800518 14.7611C0.228603 13.9319 0.228603 12.8166 0.800518 11.9588L1.77277 10.4718C1.88716 10.3288 1.91575 10.1286 1.91575 9.95705L1.80137 8.15552C1.74418 7.15467 2.2875 6.18242 3.20256 5.72488L4.80392 4.9242C4.9755 4.83842 5.08988 4.72403 5.17567 4.55246L5.97635 2.9511C6.43388 2.03603 7.37754 1.49271 8.40699 1.5499L10.2085 1.66429C10.4087 1.66429 10.5803 1.63569 10.7804 1.5499L12.2674 0.549053C13.1253 -0.0228615 14.2119 -0.0228615 15.0698 0.549053L16.5568 1.52131C16.6998 1.63569 16.8999 1.66429 17.0715 1.66429L18.873 1.5499C19.8739 1.49271 20.8461 2.03603 21.3037 2.9511L22.1043 4.55246C22.1901 4.72403 22.3045 4.83842 22.4761 4.9242L24.0775 5.72488C24.9925 6.18242 25.5358 7.12607 25.4786 8.15552L25.3643 9.95705C25.3643 10.1572 25.3929 10.3288 25.4786 10.5004L26.4795 11.9874ZM24.0775 15.3329L25.0497 13.846C25.2499 13.56 25.2499 13.2168 25.0497 12.9023L24.0775 11.4153C23.7629 10.9578 23.6199 10.4145 23.6485 9.87114L23.7629 8.1268C23.7915 7.78365 23.6199 7.4691 23.3054 7.32612L21.704 6.52544C21.2179 6.26808 20.8176 5.86774 20.5602 5.38161L19.7595 3.78025C19.6165 3.49429 19.302 3.29412 18.9588 3.32272L17.1573 3.4371C16.614 3.46569 16.0707 3.32272 15.6131 3.00816L14.1262 2.03591C13.8688 1.86433 13.4971 1.86433 13.2111 2.03591L11.7241 3.00816C11.2666 3.32272 10.7233 3.46569 10.1799 3.4371L8.37841 3.32272C8.03526 3.29412 7.72071 3.46569 7.57773 3.78025L6.77705 5.38161C6.51969 5.86774 6.11935 6.26808 5.63322 6.52544L4.03186 7.32612C3.7459 7.4691 3.54573 7.78365 3.57433 8.1268L3.68871 9.92833C3.71731 10.4717 3.57433 11.015 3.25977 11.4725L2.28752 12.9595C2.11594 13.2168 2.11594 13.5886 2.28752 13.8745L3.25977 15.3615C3.57433 15.8191 3.71731 16.3624 3.68871 16.9057L3.57433 18.7072C3.54573 19.0504 3.71731 19.3649 4.03186 19.5079L5.63322 20.3086C6.11935 20.566 6.51969 20.9663 6.77705 21.4524L7.57773 23.0538C7.72071 23.3397 8.03526 23.5399 8.37841 23.5113L10.1799 23.3969H10.3229C10.8091 23.3969 11.2952 23.5399 11.7241 23.8259L13.2111 24.7981C13.4685 24.9697 13.8402 24.9697 14.1262 24.7981L15.6131 23.8259C16.0707 23.5113 16.614 23.3683 17.1573 23.3969L18.9588 23.4827C19.302 23.5113 19.6165 23.3397 19.7595 23.0252L20.5602 21.4238C20.8176 20.9377 21.2179 20.5374 21.704 20.28L23.3054 19.4793C23.5913 19.3363 23.7915 19.0218 23.7629 18.6786L23.6485 16.8771C23.6199 16.3338 23.7629 15.7905 24.0775 15.3329Z" fill="#E0383D"/>
<path fill-rule="evenodd" clip-rule="evenodd" d="M13.5256 10.1C13.5256 11.6155 12.2674 12.8737 10.7518 12.8737C9.20764 12.8737 7.97803 11.6727 7.97803 10.1C7.97803 8.58438 9.23624 7.32617 10.7518 7.32617C12.2674 7.32617 13.5256 8.58438 13.5256 10.1ZM12.0388 10.1286C12.0388 9.41371 11.4668 8.8418 10.7519 8.8418C10.0371 8.8418 9.46514 9.38512 9.46514 10.1C9.46514 10.8149 10.0371 11.3868 10.7519 11.3868C11.4668 11.3868 12.0388 10.8435 12.0388 10.1286Z" fill="#E0383D"/>
<path fill-rule="evenodd" clip-rule="evenodd" d="M13.7544 16.6771C13.7544 15.1615 15.0126 13.9033 16.5282 13.9033C18.0724 13.9033 19.302 15.1043 19.302 16.6771C19.302 18.1927 18.0438 19.4509 16.5282 19.4509C15.0126 19.4509 13.7544 18.1927 13.7544 16.6771ZM15.2415 16.6486C15.2415 17.3635 15.8134 17.9354 16.5283 17.9354C17.2432 17.9354 17.8151 17.3635 17.8151 16.6486C17.8151 15.9337 17.2432 15.3618 16.5283 15.3618C15.8134 15.3618 15.2415 15.9337 15.2415 16.6486Z" fill="#E0383D"/>
<path d="M18.9587 8.0699C18.6442 7.75535 18.1867 7.75535 17.9007 8.0699L8.32112 17.6209C8.00657 17.9354 8.00657 18.393 8.32112 18.6789C8.4641 18.8219 8.66427 18.9077 8.83584 18.9077C9.00742 18.9077 9.20759 18.8219 9.35057 18.6789L18.9015 9.12794C19.2161 8.84198 19.2161 8.38445 18.9587 8.0699Z" fill="#E0383D"/>
</svg>
